<svg xmlns="http://www.w3.org/2000/svg" xmlns:xlink="http://www.w3.org/1999/xlink" version="1.1" width="893" height="893" style="" xml:space="preserve"><rect id="backgroundrect" width="100%" height="100%" x="0" y="0" fill="none" stroke="none"/> <g class="currentLayer" style=""><title>Layer 1</title><g id="svg_1" class="selected" fill="#000000" fill-opacity="1"><g id="svg_2" fill="#000000" fill-opacity="1">
	<path d="M130.777,129.8750990996361 c-40.994,40.994 -73.183,88.74 -95.673,141.914 C11.811,326.8610990996361 0,385.33809909963605 0,445.5990990996361 s11.811,118.738 35.104,173.81 c22.491,53.175 54.68,100.921 95.673,141.914 c40.994,40.993 88.74,73.184 141.914,95.673 C327.762,880.2890990996361 386.239,892.0990990996361 446.5,892.0990990996361 s118.738,-11.81 173.81,-35.104 c53.174,-22.49 100.921,-54.681 141.914,-95.674 c40.994,-40.994 73.184,-88.739 95.673,-141.914 C881.19,564.3370990996361 893,505.8600990996361 893,445.5990990996361 s-11.81,-118.738 -35.104,-173.81 c-22.491,-53.174 -54.681,-100.92 -95.674,-141.914 c-40.994,-40.993 -88.739,-73.183 -141.914,-95.673 C565.238,10.910099099636078 506.761,-0.9009009003639221 446.5,-0.9009009003639221 S327.762,10.910099099636078 272.69,34.20309909963608 C219.517,56.69309909963608 171.77,88.88209909963608 130.777,129.8750990996361 zM446.5,817.0990990996361 c-99.231,0 -192.523,-38.643 -262.69,-108.81 C113.643,638.1220990996361 75,544.8300990996361 75,445.5990990996361 s38.643,-192.523 108.81,-262.69 C253.977,112.74209909963608 347.269,74.09909909963608 446.5,74.09909909963608 V817.0990990996361 z" data-original="#000000" class="active-path" data-old_color="#DCDCDC" fill="#000000" id="svg_3" fill-opacity="1"/>
</g></g></g></svg>